<svg xmlns="http://www.w3.org/2000/svg" xmlns:xlink="http://www.w3.org/1999/xlink" width="1000" zoomAndPan="magnify" viewBox="0 0 750 749.999995" height="1000" preserveAspectRatio="xMidYMid meet" version="1.0"><path fill="#ffffff" d="M 291.277344 750 C 130.664062 750 0 619.335938 0 458.722656 C 0 298.117188 130.664062 167.453125 291.277344 167.453125 C 451.882812 167.453125 582.546875 298.117188 582.546875 458.722656 C 582.546875 619.335938 451.882812 750 291.277344 750 Z M 291.277344 276.390625 C 190.734375 276.390625 108.929688 358.183594 108.929688 458.730469 C 108.929688 559.273438 190.726562 641.078125 291.277344 641.078125 C 391.816406 641.078125 473.625 559.28125 473.625 458.730469 C 473.617188 358.183594 391.816406 276.390625 291.277344 276.390625 Z M 291.277344 276.390625 " fill-opacity="1" fill-rule="nonzero"/><path fill="#ffffff" d="M 750 291.277344 L 641.070312 291.277344 L 641.070312 108.929688 L 458.722656 108.929688 L 458.722656 0 L 750 0 Z M 750 291.277344 " fill-opacity="1" fill-rule="nonzero"/><path fill="#ffffff" d="M 656.988281 15.964844 L 734.011719 92.992188 L 497.199219 329.796875 L 420.175781 252.769531 Z M 656.988281 15.964844 " fill-opacity="1" fill-rule="nonzero"/></svg>