<svg xmlns="http://www.w3.org/2000/svg" xmlns:xlink="http://www.w3.org/1999/xlink" width="1000" zoomAndPan="magnify" viewBox="0 0 750 749.999995" height="1000" preserveAspectRatio="xMidYMid meet" version="1.0"><path fill="#ffffff" d="M 208.378906 474.269531 L 152.148438 528.410156 L 70.027344 443.113281 L 7.320312 503.484375 L 89.441406 588.777344 L 4.148438 670.898438 L 64.515625 733.605469 L 149.8125 651.480469 L 231.933594 736.777344 L 294.636719 676.40625 L 212.515625 591.113281 L 268.746094 536.972656 C 383.367188 625.628906 548.757812 619.207031 656.175781 515.785156 C 774.242188 402.113281 777.773438 213.917969 664.136719 95.886719 C 550.5 -22.144531 362.304688 -25.75 244.238281 87.925781 C 136.820312 191.34375 124.132812 356.371094 208.378906 474.269531 Z M 601.433594 156.257812 C 681.777344 239.707031 679.265625 372.726562 595.804688 453.082031 C 512.34375 533.4375 379.324219 530.90625 298.980469 447.453125 C 218.632812 364.003906 221.148438 230.984375 304.609375 150.628906 C 388.066406 70.273438 521.085938 72.804688 601.433594 156.257812 Z M 601.433594 156.257812 " fill-opacity="1" fill-rule="evenodd"/></svg>